<svg width="1101" height="173" viewBox="0 0 1101 173" fill="none" xmlns="http://www.w3.org/2000/svg">
<g clip-path="url(#clip0)">
<path d="M119.158 134.307L107.821 132.941V47.9834L118.475 46.2078V39.5149H100.582C98.0325 39.5149 94.5722 39.3328 90.2014 38.9686C85.6485 38.6043 82.0972 38.4222 79.5475 38.4222C66.1619 38.4222 56.6462 40.6076 51.0006 44.9785C45.2639 49.2582 42.3955 56.0421 42.3955 65.3301C42.3955 71.7953 44.2167 77.7141 47.8591 83.0866C51.4103 88.4591 56.3275 92.1014 62.6106 94.0136C59.6967 95.5616 57.0105 98.2479 54.5519 102.072C52.0022 105.806 48.9062 111.042 45.2639 117.78C42.4411 122.879 40.3012 126.613 38.8442 128.98C37.2962 131.348 35.8393 132.668 34.4734 132.941L29.1465 134.307V141H47.9956C49.4526 141 51.0916 139.452 52.9128 136.356C54.734 133.169 57.1471 128.297 60.152 121.741C63.4301 114.547 66.2985 108.856 68.7571 104.668C71.1246 100.388 73.4921 97.656 75.8596 96.4722C85.6029 96.4722 91.3852 96.4267 93.2064 96.3356V132.941L79.6841 134.307V141H119.158V134.307ZM76.9523 89.0965C71.1246 89.0965 66.5261 87.1842 63.1569 83.3598C59.7878 79.5353 58.1032 73.8441 58.1032 66.2862C58.1032 59.6389 59.8333 54.5852 63.2935 51.1249C66.6627 47.5736 72.536 45.798 80.9134 45.798C83.8273 45.798 86.7412 45.9801 89.6551 46.3443C91.4762 46.5265 92.66 46.6175 93.2064 46.6175V88.9599C91.8405 89.0509 89.0176 89.0965 84.7379 89.0965H76.9523Z" fill="black" fill-opacity="0.69"/>
<path d="M291.106 119L277.893 100.485C275.941 100.749 274.148 100.881 272.513 100.881H256.688V119H252.653V63.6144H272.513C279.475 63.6144 284.935 65.276 288.891 68.5991C292.847 71.8695 294.825 76.4322 294.825 82.2873C294.825 86.6654 293.691 90.3577 291.423 93.3644C289.207 96.3183 286.016 98.4018 281.849 99.6151L295.695 119H291.106ZM272.513 97.3205C278.42 97.3205 282.93 96.0282 286.042 93.4435C289.155 90.8061 290.711 87.0874 290.711 82.2873C290.711 77.4872 289.155 73.7948 286.042 71.2102C282.93 68.5728 278.42 67.2541 272.513 67.2541H256.688V97.3205H272.513ZM343.226 99.2986H307.7C307.806 102.516 308.623 105.391 310.153 107.923C311.683 110.402 313.74 112.327 316.325 113.699C318.962 115.07 321.916 115.756 325.186 115.756C327.877 115.756 330.356 115.281 332.624 114.332C334.945 113.33 336.87 111.879 338.4 109.98L340.694 112.591C338.901 114.754 336.633 116.415 333.89 117.576C331.2 118.736 328.272 119.316 325.107 119.316C320.993 119.316 317.327 118.42 314.109 116.626C310.892 114.833 308.36 112.354 306.514 109.189C304.72 106.024 303.823 102.411 303.823 98.3491C303.823 94.3402 304.667 90.7534 306.355 87.5885C308.096 84.3708 310.47 81.8653 313.476 80.0719C316.483 78.2784 319.859 77.3817 323.604 77.3817C327.349 77.3817 330.699 78.2784 333.652 80.0719C336.659 81.8125 339.006 84.2653 340.694 87.4302C342.435 90.5951 343.305 94.182 343.305 98.1909L343.226 99.2986ZM323.604 80.8631C320.703 80.8631 318.092 81.5224 315.771 82.8411C313.45 84.1071 311.577 85.9269 310.153 88.3006C308.782 90.6215 307.99 93.2589 307.779 96.2128H339.428C339.27 93.2589 338.479 90.6215 337.055 88.3006C335.631 85.9797 333.758 84.1598 331.437 82.8411C329.116 81.5224 326.505 80.8631 323.604 80.8631ZM365.988 119.316C362.665 119.316 359.5 118.815 356.493 117.813C353.487 116.811 351.139 115.545 349.452 114.015L351.271 110.85C352.959 112.275 355.122 113.461 357.759 114.411C360.45 115.36 363.245 115.835 366.146 115.835C370.313 115.835 373.373 115.149 375.325 113.778C377.329 112.406 378.331 110.508 378.331 108.081C378.331 106.34 377.777 104.969 376.67 103.967C375.615 102.965 374.296 102.226 372.713 101.751C371.131 101.277 368.942 100.776 366.146 100.248C362.876 99.6678 360.239 99.0348 358.234 98.3491C356.23 97.6634 354.515 96.5557 353.091 95.026C351.667 93.4963 350.955 91.3863 350.955 88.6962C350.955 85.4258 352.3 82.7356 354.99 80.6257C357.733 78.463 361.61 77.3817 366.621 77.3817C369.258 77.3817 371.87 77.7509 374.454 78.4894C377.039 79.2279 379.149 80.2037 380.784 81.4169L378.964 84.5818C377.276 83.3686 375.351 82.4455 373.188 81.8125C371.026 81.1796 368.81 80.8631 366.542 80.8631C362.691 80.8631 359.79 81.5752 357.839 82.9994C355.887 84.4236 354.911 86.2961 354.911 88.6171C354.911 90.4632 355.465 91.9138 356.573 92.9688C357.68 93.971 359.025 94.7358 360.608 95.2633C362.243 95.7381 364.511 96.2655 367.412 96.8458C370.63 97.426 373.215 98.059 375.166 98.7447C377.171 99.3777 378.859 100.433 380.23 101.91C381.602 103.387 382.287 105.417 382.287 108.002C382.287 111.431 380.863 114.174 378.015 116.231C375.166 118.288 371.157 119.316 365.988 119.316ZM413.821 116.389C412.818 117.338 411.552 118.077 410.023 118.604C408.546 119.079 406.99 119.316 405.355 119.316C401.768 119.316 398.998 118.341 397.047 116.389C395.095 114.385 394.119 111.615 394.119 108.081V81.1004H386.523V77.6982H394.119V68.6783H398.075V77.6982H411.21V81.1004H398.075V107.686C398.075 110.376 398.708 112.433 399.974 113.857C401.293 115.229 403.218 115.914 405.75 115.914C408.335 115.914 410.471 115.149 412.159 113.62L413.821 116.389ZM438.779 77.3817C443.895 77.3817 447.825 78.7004 450.568 81.3378C453.311 83.9225 454.682 87.7467 454.682 92.8105V119H450.884V111.642C449.566 114.068 447.64 115.967 445.108 117.338C442.577 118.657 439.544 119.316 436.009 119.316C431.42 119.316 427.781 118.235 425.091 116.072C422.453 113.91 421.134 111.061 421.134 107.527C421.134 104.099 422.348 101.329 424.774 99.2194C427.253 97.0568 431.183 95.9754 436.563 95.9754H450.726V92.6523C450.726 88.8017 449.671 85.8742 447.561 83.8697C445.504 81.8653 442.471 80.8631 438.462 80.8631C435.719 80.8631 433.082 81.3378 430.55 82.2873C428.071 83.2367 425.961 84.5027 424.22 86.0851L422.242 83.2367C424.299 81.3906 426.778 79.9664 429.68 78.9641C432.581 77.9092 435.614 77.3817 438.779 77.3817ZM436.563 116.072C439.992 116.072 442.893 115.281 445.267 113.699C447.693 112.116 449.513 109.822 450.726 106.815V99.0612H436.642C432.581 99.0612 429.627 99.7997 427.781 101.277C425.987 102.754 425.091 104.784 425.091 107.369C425.091 110.059 426.093 112.195 428.097 113.778C430.102 115.308 432.924 116.072 436.563 116.072ZM507.141 77.6982V119H503.343V110.138C501.972 113.039 499.941 115.308 497.251 116.943C494.561 118.525 491.396 119.316 487.756 119.316C482.376 119.316 478.156 117.813 475.096 114.807C472.037 111.8 470.507 107.475 470.507 101.83V77.6982H474.463V101.514C474.463 106.156 475.65 109.69 478.024 112.116C480.398 114.543 483.747 115.756 488.072 115.756C492.714 115.756 496.38 114.305 499.07 111.404C501.813 108.503 503.185 104.6 503.185 99.6942V77.6982H507.141ZM527.708 86.7181C528.974 83.7115 530.952 81.4169 533.643 79.8345C536.333 78.1993 539.603 77.3817 543.454 77.3817V81.2587L542.504 81.1796C537.915 81.1796 534.328 82.6301 531.744 85.5313C529.159 88.3797 527.867 92.3622 527.867 97.4788V119H523.911V77.6982H527.708V86.7181ZM568.28 77.3817C573.396 77.3817 577.326 78.7004 580.069 81.3378C582.812 83.9225 584.183 87.7467 584.183 92.8105V119H580.385V111.642C579.067 114.068 577.141 115.967 574.609 117.338C572.077 118.657 569.044 119.316 565.51 119.316C560.921 119.316 557.282 118.235 554.591 116.072C551.954 113.91 550.635 111.061 550.635 107.527C550.635 104.099 551.849 101.329 554.275 99.2194C556.754 97.0568 560.684 95.9754 566.064 95.9754H580.227V92.6523C580.227 88.8017 579.172 85.8742 577.062 83.8697C575.005 81.8653 571.972 80.8631 567.963 80.8631C565.22 80.8631 562.583 81.3378 560.051 82.2873C557.572 83.2367 555.462 84.5027 553.721 86.0851L551.743 83.2367C553.8 81.3906 556.279 79.9664 559.181 78.9641C562.082 77.9092 565.115 77.3817 568.28 77.3817ZM566.064 116.072C569.493 116.072 572.394 115.281 574.768 113.699C577.194 112.116 579.014 109.822 580.227 106.815V99.0612H566.143C562.082 99.0612 559.128 99.7997 557.282 101.277C555.488 102.754 554.591 104.784 554.591 107.369C554.591 110.059 555.594 112.195 557.598 113.778C559.603 115.308 562.425 116.072 566.064 116.072ZM620.659 77.3817C625.828 77.3817 629.916 78.885 632.923 81.8917C635.93 84.8983 637.433 89.2237 637.433 94.8677V119H633.477V95.1842C633.477 90.5424 632.29 87.0082 629.916 84.5818C627.595 82.1554 624.325 80.9422 620.105 80.9422C615.252 80.9422 611.428 82.3928 608.633 85.2939C605.837 88.1951 604.439 92.0984 604.439 97.004V119H600.483V77.6982H604.281V86.639C605.705 83.7379 607.815 81.4697 610.611 79.8345C613.459 78.1993 616.808 77.3817 620.659 77.3817ZM674.213 116.389C673.211 117.338 671.945 118.077 670.415 118.604C668.938 119.079 667.382 119.316 665.747 119.316C662.16 119.316 659.391 118.341 657.439 116.389C655.488 114.385 654.512 111.615 654.512 108.081V81.1004H646.916V77.6982H654.512V68.6783H658.468V77.6982H671.602V81.1004H658.468V107.686C658.468 110.376 659.101 112.433 660.367 113.857C661.685 115.229 663.611 115.914 666.143 115.914C668.727 115.914 670.864 115.149 672.552 113.62L674.213 116.389ZM739.422 119L728.741 103.571H728.108H716.951V119H704.134V63.6144H728.108C733.013 63.6144 737.26 64.432 740.846 66.0672C744.486 67.7024 747.282 70.0233 749.233 73.03C751.185 76.0366 752.161 79.5971 752.161 83.7115C752.161 87.8258 751.159 91.3863 749.154 94.393C747.203 97.3469 744.407 99.6151 740.767 101.197L753.189 119H739.422ZM739.185 83.7115C739.185 80.5993 738.183 78.2257 736.178 76.5905C734.174 74.9025 731.246 74.0586 727.396 74.0586H716.951V93.3644H727.396C731.246 93.3644 734.174 92.5204 736.178 90.8325C738.183 89.1445 739.185 86.7709 739.185 83.7115ZM803.143 97.8744C803.143 98.0326 803.064 99.1403 802.906 101.197H770.703C771.284 103.835 772.655 105.918 774.818 107.448C776.98 108.978 779.67 109.743 782.888 109.743C785.104 109.743 787.055 109.426 788.743 108.793C790.484 108.108 792.093 107.053 793.57 105.628L800.137 112.749C796.128 117.338 790.273 119.633 782.572 119.633C777.772 119.633 773.525 118.71 769.833 116.864C766.141 114.965 763.292 112.354 761.288 109.031C759.283 105.707 758.281 101.936 758.281 97.7161C758.281 93.549 759.257 89.8039 761.209 86.4808C763.213 83.1049 765.93 80.4938 769.358 78.6477C772.84 76.7487 776.717 75.7993 780.989 75.7993C785.156 75.7993 788.928 76.696 792.304 78.4894C795.68 80.2829 798.317 82.8675 800.216 86.2434C802.168 89.5665 803.143 93.4435 803.143 97.8744ZM781.068 85.1357C778.273 85.1357 775.925 85.9269 774.026 87.5093C772.128 89.0918 770.967 91.2545 770.545 93.9974H791.512C791.09 91.3072 789.93 89.1709 788.031 87.5885C786.132 85.9533 783.811 85.1357 781.068 85.1357ZM852.84 76.4322L834.879 119H822.14L804.259 76.4322H816.997L828.786 105.391L840.971 76.4322H852.84ZM857.876 76.4322H870.219V119H857.876V76.4322ZM864.048 70.4981C861.78 70.4981 859.933 69.8387 858.509 68.52C857.085 67.2013 856.373 65.5661 856.373 63.6144C856.373 61.6627 857.085 60.0276 858.509 58.7089C859.933 57.3901 861.78 56.7308 864.048 56.7308C866.316 56.7308 868.162 57.3638 869.586 58.6297C871.011 59.8957 871.723 61.4781 871.723 63.3771C871.723 65.4342 871.011 67.1486 869.586 68.52C868.162 69.8387 866.316 70.4981 864.048 70.4981ZM923.372 97.8744C923.372 98.0326 923.293 99.1403 923.135 101.197H890.932C891.512 103.835 892.884 105.918 895.046 107.448C897.209 108.978 899.899 109.743 903.117 109.743C905.332 109.743 907.284 109.426 908.972 108.793C910.713 108.108 912.321 107.053 913.798 105.628L920.365 112.749C916.357 117.338 910.502 119.633 902.8 119.633C898 119.633 893.754 118.71 890.062 116.864C886.369 114.965 883.521 112.354 881.516 109.031C879.512 105.707 878.51 101.936 878.51 97.7161C878.51 93.549 879.486 89.8039 881.437 86.4808C883.442 83.1049 886.158 80.4938 889.587 78.6477C893.068 76.7487 896.945 75.7993 901.218 75.7993C905.385 75.7993 909.156 76.696 912.532 78.4894C915.908 80.2829 918.546 82.8675 920.445 86.2434C922.396 89.5665 923.372 93.4435 923.372 97.8744ZM901.297 85.1357C898.501 85.1357 896.154 85.9269 894.255 87.5093C892.356 89.0918 891.196 91.2545 890.774 93.9974H911.741C911.319 91.3072 910.159 89.1709 908.26 87.5885C906.361 85.9533 904.04 85.1357 901.297 85.1357ZM999.179 76.4322L983.75 119H971.881L962.308 92.5732L952.417 119H940.549L925.199 76.4322H936.83L946.879 105.233L957.323 76.4322H967.767L977.895 105.233L988.26 76.4322H999.179ZM1018.62 119.633C1015.09 119.633 1011.63 119.211 1008.25 118.367C1004.88 117.47 1002.19 116.363 1000.18 115.044L1004.3 106.182C1006.2 107.395 1008.49 108.398 1011.18 109.189C1013.87 109.927 1016.51 110.297 1019.09 110.297C1024.32 110.297 1026.93 109.004 1026.93 106.42C1026.93 105.206 1026.22 104.336 1024.79 103.809C1023.37 103.281 1021.18 102.833 1018.22 102.463C1014.74 101.936 1011.87 101.329 1009.6 100.644C1007.33 99.9579 1005.35 98.7447 1003.67 97.004C1002.03 95.2633 1001.21 92.7842 1001.21 89.5665C1001.21 86.8764 1001.98 84.5027 1003.51 82.4455C1005.09 80.3356 1007.36 78.7004 1010.31 77.5399C1013.32 76.3795 1016.85 75.7993 1020.91 75.7993C1023.92 75.7993 1026.9 76.1421 1029.86 76.8278C1032.86 77.4608 1035.34 78.3575 1037.29 79.518L1033.18 88.3006C1029.43 86.1906 1025.35 85.1357 1020.91 85.1357C1018.28 85.1357 1016.3 85.5049 1014.98 86.2434C1013.66 86.9819 1013 87.9313 1013 89.0918C1013 90.4105 1013.71 91.3336 1015.14 91.8611C1016.56 92.3886 1018.83 92.8897 1021.94 93.3644C1025.42 93.9446 1028.27 94.5776 1030.49 95.2633C1032.7 95.8963 1034.63 97.0831 1036.26 98.8238C1037.9 100.565 1038.72 102.991 1038.72 106.103C1038.72 108.74 1037.93 111.088 1036.34 113.145C1034.76 115.202 1032.44 116.811 1029.38 117.971C1026.37 119.079 1022.79 119.633 1018.62 119.633Z" fill="black"/>
<path d="M108.96 134.307L120.296 132.941V47.9834L109.642 46.2078V39.5149H127.536C130.085 39.5149 133.545 39.3328 137.916 38.9686C142.469 38.6043 146.02 38.4222 148.57 38.4222C161.956 38.4222 171.471 40.6076 177.117 44.9785C182.854 49.2582 185.722 56.0421 185.722 65.3301C185.722 71.7953 183.901 77.7141 180.259 83.0866C176.707 88.4591 171.79 92.1014 165.507 94.0136C168.421 95.5616 171.107 98.2479 173.566 102.072C176.115 105.806 179.211 111.042 182.854 117.78C185.677 122.879 187.816 126.613 189.273 128.98C190.821 131.348 192.278 132.668 193.644 132.941L198.971 134.307V141H180.122C178.665 141 177.026 139.452 175.205 136.356C173.384 133.169 170.971 128.297 167.966 121.741C164.688 114.547 161.819 108.856 159.361 104.668C156.993 100.388 154.626 97.656 152.258 96.4722C142.515 96.4722 136.732 96.4267 134.911 96.3356V132.941L148.434 134.307V141H108.96V134.307ZM151.165 89.0965C156.993 89.0965 161.592 87.1842 164.961 83.3598C168.33 79.5353 170.014 73.8441 170.014 66.2862C170.014 59.6389 168.284 54.5852 164.824 51.1249C161.455 47.5736 155.582 45.798 147.204 45.798C144.29 45.798 141.376 45.9801 138.463 46.3443C136.641 46.5265 135.458 46.6175 134.911 46.6175V88.9599C136.277 89.0509 139.1 89.0965 143.38 89.0965H151.165Z" fill="#BF9239"/>
</g>
<defs>
<clipPath id="clip0">
<rect width="1101" height="173" fill="white"/>
</clipPath>
</defs>
</svg>
